<svg xmlns="http://www.w3.org/2000/svg" viewBox="0 0 451.06 1766.61"><defs><style>.cls-1,.cls-6{fill:#9dbb80;}.cls-1,.cls-2,.cls-5,.cls-6{stroke:#231f20;}.cls-1,.cls-2,.cls-3,.cls-4,.cls-5,.cls-6{stroke-miterlimit:10;}.cls-1{stroke-width:3px;}.cls-3{fill:#231f20;}.cls-3,.cls-4{stroke:#fff;}.cls-4{fill:#fff;}.cls-5{fill:#f1cab8;}.cls-5,.cls-6{stroke-width:2px;}.cls-6{isolation:isolate;opacity:0.45;}</style></defs><g id="Layer_2" data-name="Layer 2"><g id="Grogu"><g id="Cabeza"><path class="cls-1" d="M122.5,1760.5c-.18-28.7-.16-73.68,1.27-129.15,2-78.13,4.43-85.65,4.73-140.85.41-76.32-4.57-89.84-2-151,1.95-46.32,5.93-84.17,9-109A545.32,545.32,0,0,1,1.5,890.75a606,606,0,0,1,20.12-146c10.1-38.12,21.59-66.22,29.38-85.12a806.16,806.16,0,0,1,69.52-132.17c-3.3-20.87-8.79-53-17.19-92.21-5-23.55-8.2-35.93-12-52.33C75.94,317.63,67.57,264.48,60,216.56c-11.89-75.41-8.51-73.37-15.52-112.06-3.3-18.19-2.45-37-6.32-55.09a64.14,64.14,0,0,1,0-29.74,58.18,58.18,0,0,1,2.32-7.17,26,26,0,0,1,5.38-5.75A23.21,23.21,0,0,1,60.48,1.5c12.76,0,19.57,10.32,20,11a420.28,420.28,0,0,0,131,120c38.35,22.41,40.6,21.14,75,44,23.17,15.4,43.41,29,66,52,14.42,14.68,30.44,30.48,44,56,6.1,11.47,7.27,16.5,17,39,10.33,23.79,19.67,42.7,26,55-2.66,1.92-16.51,12.29-19,31a45.14,45.14,0,0,0,4,25c7.79,2.67,11.73,10.15,10,16s-8.49,7.86-9,8a32.6,32.6,0,0,0,3,46,11.38,11.38,0,0,1-1,22c-1.27.93-13,9.72-12.91,24,.09,13.18,10.22,25.46,24.91,29l5,4.32,5.08,4v596.81c-22.59,6-35.71,24.18-33.32,39.53,1.76,11.31,11.49,18.25,14.76,20.37a7.43,7.43,0,0,1,4.51,7.91,7.31,7.31,0,0,1-5.08,5.64c-11.88,10.07-16.48,24.75-11.86,36.14,2.91,7.16,8.69,11.17,11.86,13a11.62,11.62,0,0,1,5.08,8.47c.37,4.79-3.43,8.67-5.08,10.17a25.61,25.61,0,0,0,5.65,49.13l7.34,6.21h0l-2.26,11.29c-2.21,6.72-5.75,17.59-9.91,31-17.82,57.49-17.73,67.07-28.49,90.94-9.42,20.9-17.22,37-33.32,54.21-14.7,15.7-20.52,15.16-49.13,42.92-9.33,9-15.59,15.78-28.8,27.67-10.62,9.56-19.73,17-26,22q-29.22,25.26-59.3,53.08c-30.1,27.91-32.14,45.27-52,49.7C141.55,1766.9,130,1763.53,122.5,1760.5Z"/></g><g id="Arrugas"><path class="cls-2" d="M62.28,978.54,61.15,971a33.14,33.14,0,0,0,1.13-12.8c-.67-5.85-2.49-7-3-13.18-.45-5.3.71-6.58.76-12.8a50.92,50.92,0,0,0-1.64-13.18,16.82,16.82,0,0,1,.88-11.29,16.59,16.59,0,0,1,6.4-7.15,4,4,0,0,0,3-.76c1.74-1.45,1.89-5.09-.38-8.55a25.56,25.56,0,0,1-7.53-9.14,26,26,0,0,1-2.64-10.53c-.12-1.67-.28-4.14-.37-7.16-.18-5.57,0-8.43,0-12,0-5.23-.47-7.09-1.13-14.31-.42-4.55-.91-11.09-1.13-19.2a3.23,3.23,0,0,0-3.06-3.39,1.82,1.82,0,0,0-.33,0A3.16,3.16,0,0,0,49.85,819c-.6,5.55-1.56,15.15-2.26,27.11-1.92,33.07.14,50.56,0,90.73,0,8.3-.16,21.38-.75,37.64,4.21,6.58,9.73,9.4,12.8,7.91C60.21,982,61.5,981.21,62.28,978.54Z"/><path class="cls-2" d="M125.52,773.74l-6.4-3.39-7.9,17.28a531.87,531.87,0,0,0-7.53,174.31,521.62,521.62,0,0,0,11.29,61c2.34,8.48,6.87,13.33,9.64,12.74,2.44-.52,4.13-5.37,4.29-11.24a466.8,466.8,0,0,1-11.67-61.36c-3.32-27.37-3.39-48.19-3.39-64.75a696.34,696.34,0,0,1,4.9-79.06C120.88,801,123.39,785.53,125.52,773.74Z"/></g><g id="Cejas"><path class="cls-2" d="M227.41,688.09a308.53,308.53,0,0,1,13.31-94.68q.41-7.65-1.5-8.29-2.73-.9-10.17,12.43a172.28,172.28,0,0,0-12.8,26c-5.85,15-17.05,44.61-10.92,81.32,6.47,38.64,28.67,63.86,38.4,73.76,2.79,3.48,7.1,3.56,8.66,1.88,1.37-1.46,1.23-4.87-1.13-7.53-9.43-14.11-21.37-36.85-23.71-66.26A130.16,130.16,0,0,1,227.41,688.09Z"/><path class="cls-2" d="M247.5,1010.16c.28-.4,4.69-6.8,2.63-9.79-1.83-2.67-8.78-2.54-16.56,2.26a165,165,0,0,0-41,81.69,106.14,106.14,0,0,0,41,88.85c5.71,4.79,11.23,6.16,12.8,4.52s0-6.41-3.77-11.3a130.68,130.68,0,0,1-32-81.69,242.07,242.07,0,0,1,36.9-74.54Z"/></g><g id="Ojos_y_boca" data-name="Ojos y boca"><path class="cls-3" d="M271.88,1168c-4-5.11-38-50.16-23.15-102.45,10.84-38.11,39.75-57.69,47.71-62.72a120,120,0,0,1,76.24-23.72,21,21,0,0,1,8.47,4.24,21.75,21.75,0,0,1,5.64,7.62,128.63,128.63,0,0,1,7.91,21.17c4.24,15.43,4.39,13.16,6.21,20.9a153.29,153.29,0,0,1,3.95,35c.43,43.9-17.88,80.78-21.17,87.25a197.43,197.43,0,0,1-25.41,38.12c-3.81,3.72-10.69,9.29-20.33,11-14.64,2.6-26.84-5.23-39.82-13.56A120.28,120.28,0,0,1,271.88,1168Z"/><path class="cls-3" d="M395.55,766.49c-.4,1.86-5.53,24.26-26.26,32.19a41.76,41.76,0,0,1-26.26.84c-12-3.95-44-16.22-67.77-49.13-28.26-39.21-25.6-80.76-24.58-91.48a95.46,95.46,0,0,1,69.48-86.4A38,38,0,0,1,360,579.29c4.78,6.33,9.6,13.11,14.4,20.33,8.19,12.33,15.19,24.28,21.18,35.57a257.85,257.85,0,0,1,0,131.3Z"/><path class="cls-4" d="M270.18,1077.36a21.29,21.29,0,0,0,2.54,14.4c5.92,9.85,17.87,10.16,18.64,10.16a22.94,22.94,0,0,0,9.32-5.08c7.94-7.23,7.69-17.71,7.62-19.48l-3.2-15.63c-10.13-9.23-23.92-9-30.68-2.16C268.1,1066,270,1076.19,270.18,1077.36Z"/><path class="cls-4" d="M269.66,642.82a20.87,20.87,0,0,0,18.7,22.82l.64.05a19.28,19.28,0,0,0,14.23-5.08A19.07,19.07,0,0,0,308.12,642a21.62,21.62,0,0,0-17.69-19.2,19.83,19.83,0,0,0-14.31,4.8A20.11,20.11,0,0,0,269.66,642.82Z"/><path class="cls-3" d="M380,846.39c-2.95-2-6.75-.81-7.91,1.7a5.38,5.38,0,0,0,2.82,6.77l10.73,3.39-2,7.91a21.78,21.78,0,0,1,8.76,16.94l-5.08,8.2A18.45,18.45,0,0,1,380,912.46a6,6,0,0,0,0,11.86,73.22,73.22,0,0,0,9-.56,74.33,74.33,0,0,0,9-1.7,37.41,37.41,0,0,1,7-35.89c1.11-5.3.21-8.79-.76-11-2-4.4-5.21-5.51-6.21-9.6-.87-3.51.5-6.86,1.69-9-2.34-1-4.93-2.49-5.08-4.52-.18-2.39,3.14-3.82,2.82-5.08S393.45,845,380,846.39Z"/></g><g id="Orejas"><path class="cls-5" d="M188,1688.93c39.27-32.21,5.12.89,101.64-77.08,7.3-5.89,18.38-14.88,32.19-27.95,9-8.51,16.16-15.92,19.48-19.48,36.05-38.6,55.06-87.25,55.06-87.25,12.19-31.18,19.45-49.77,16.1-74.54-3-22-11.16-25.33-12.71-52.52-1-17.65-2.2-38.53,2.54-51.67,2.69-7.44,2.64-11.17,2.54-18.63-.06-4.83-.66-6.46-1.69-7.63-3.32-3.73-10.44-1.78-19.48,0a313,313,0,0,1-37.27,4.24c-14.09.86-19.25-.09-23.72-1.7-6.3-2.26-7.43-4.44-12.43-5.67-8.53-2.1-16.56,1.47-25.69,6.52-15.23,8.42-25.63,14.17-39,27.11-7.23,7-22.67,22.26-33.89,46.58-5.65,12.28-9,24.18-13.55,59.3-1.4,10.83-4.72,37.75-7.62,85.55-3.31,54.48-5,81.71-3.39,95.72a106.87,106.87,0,0,1,0,27.1c-1.59,12.25-4.75,19.47-9.32,32.19-9.79,27.44-17.79,49.81-12.64,53.37C168.82,1705,177.92,1697.22,188,1688.93Z"/><path class="cls-5" d="M271,499.63c-8.13-1.2-15.71-4.56-31.63-17-14.69-11.43-24.73-19.24-36.14-33-7.35-8.89-17.75-24.21-33-60.14-9.71-22.83-13.49-37.54-23.72-73.7-14.43-51-21.64-76.46-27.95-95.71-11.75-35.83-17.12-73.87-32.19-108.43-1.53-3.51-6.71-15.16-3.39-17.78,2.86-2.27,10.32,3.51,22.87,11.85,5.61,3.73,17.86,11,42.35,25.42,4.23,2.49,15.81,8.72,39,21.17,32.93,17.71,41.19,21.89,46.59,24.57,18.54,9.22,24.48,11.4,32.19,15.24,49.53,24.71,77.67,70.8,89.78,90.64,14.62,23.94,19.13,39.67,21.18,49.13a154.08,154.08,0,0,1,3.36,29.74c.06,15-2.45,18.29-2.54,33.88,0,7.36-.11,18.72,3.39,32.19,3.05,11.77,5.89,13.8,15.24,37.27,8.26,20.72,7.61,23.06,6.78,24.56-4.37,7.85-19.1,1.93-57.32,3.39-23.42.89-35.13,1.34-50.26,4.23C285,499.15,279.71,500.94,271,499.63Z"/></g><g id="Manos"><path class="cls-6" d="M445.52,1364.23v-33.6a9.44,9.44,0,0,0-3.39.28c-6.63,1.8-10.47,10.94-10.44,18.07,0,9.9,7.5,16.21,8.75,17.22,1.51,2,3.85,2.08,4.8,1.13A3,3,0,0,0,445.52,1364.23Z"/><path class="cls-6" d="M445.52,1298.74v-33.6a9.93,9.93,0,0,0-3.39.28c-6.63,1.8-10.47,10.94-10.44,18.07,0,9.9,7.5,16.21,8.75,17.23,1.51,1.94,3.85,2.08,4.8,1.13A3,3,0,0,0,445.52,1298.74Z"/><path class="cls-6" d="M445.8,1236.34v-33.6a9.93,9.93,0,0,0-3.39.28c-6.63,1.8-10.47,10.94-10.44,18.07,0,9.9,7.5,16.21,8.75,17.23,1.51,1.94,3.85,2.08,4.8,1.13A3,3,0,0,0,445.8,1236.34Z"/><path class="cls-6" d="M445.52,430.79v-33.6a9.44,9.44,0,0,0-3.39.28c-6.63,1.8-10.47,10.94-10.45,18.07,0,9.9,7.51,16.21,8.76,17.22,1.5,1.95,3.84,2.08,4.8,1.13A3,3,0,0,0,445.52,430.79Z"/><path class="cls-6" d="M445.52,497.1V463.5a9.93,9.93,0,0,0-3.39.28c-6.63,1.8-10.47,11-10.45,18.07,0,9.9,7.51,16.21,8.76,17.23,1.5,1.94,3.84,2.08,4.8,1.13A3,3,0,0,0,445.52,497.1Z"/><path class="cls-6" d="M445.52,564.34v-33.6a9.93,9.93,0,0,0-3.39.28c-6.63,1.8-10.47,10.94-10.45,18.07,0,9.9,7.51,16.21,8.76,17.23,1.5,1.94,3.84,2.08,4.8,1.13A3,3,0,0,0,445.52,564.34Z"/></g></g></g></svg>